<svg xmlns="http://www.w3.org/2000/svg" xmlns:xlink="http://www.w3.org/1999/xlink" id="Ebene_1" x="0px" y="0px" viewBox="0 0 1000 1000" style="enable-background:new 0 0 1000 1000;" xml:space="preserve"><style type="text/css">	.st0{fill:#FFFFFF;}	.st1{enable-background:new    ;}	.st2{fill:#4F6471;}	.st3{fill:#E6235C;}	.st4{fill:#267281;}	.st5{fill:#406080;}	.st6{fill:none;}</style><circle class="st0" cx="500" cy="500" r="220"></circle><g class="st1">	<path class="st2" d="M445.7,467.2h-45.2v46.7H377V399.6h74.4v19.1h-50.9v29.5h45.2V467.2z"></path>	<path class="st2" d="M512.7,505.2c-5.6,6.8-13.3,10.2-23.2,10.2c-9.1,0-16.1-2.6-20.8-7.8c-4.8-5.2-7.2-12.9-7.3-23v-55.7H484v54.9  c0,8.9,4,13.3,12.1,13.3c7.7,0,13-2.7,15.9-8v-60.2h22.8v84.9h-21.3L512.7,505.2z"></path>	<path class="st2" d="M622,464.3h-45.2v30.6h53.1v18.9h-76.6V399.6h76.5v19.1h-52.9v27.2H622V464.3z"></path></g><g class="st1">	<path class="st3" d="M442.2,640.9h-9.9v-3.1h9.9V640.9z"></path>	<path class="st3" d="M475.2,651.9h-19.4v-2.7l10.3-11.4c1.5-1.7,2.6-3.1,3.1-4.2s0.9-2.2,0.9-3.3c0-1.5-0.5-2.8-1.4-3.8  c-0.9-1-2.2-1.5-3.7-1.5c-1.9,0-3.3,0.5-4.4,1.6s-1.6,2.5-1.6,4.4h-3.8c0-2.7,0.9-4.9,2.6-6.6c1.8-1.7,4.1-2.5,7.1-2.5  c2.8,0,4.9,0.7,6.5,2.2s2.4,3.4,2.4,5.8c0,2.9-1.9,6.4-5.6,10.4l-7.9,8.6h14.9V651.9z"></path>	<path class="st3" d="M497.8,639.3c0,4.4-0.8,7.7-2.3,9.8s-3.9,3.2-7.1,3.2c-3.2,0-5.5-1-7-3.1c-1.5-2.1-2.3-5.2-2.4-9.4v-5  c0-4.4,0.8-7.6,2.3-9.7s3.9-3.2,7.1-3.2c3.2,0,5.5,1,7,3.1c1.5,2,2.3,5.2,2.3,9.5V639.3z M494.1,634.1c0-3.2-0.4-5.5-1.3-7  s-2.3-2.2-4.3-2.2c-1.9,0-3.3,0.7-4.2,2.2c-0.9,1.5-1.3,3.7-1.4,6.7v6c0,3.2,0.5,5.6,1.4,7.1s2.3,2.3,4.2,2.3  c1.9,0,3.2-0.7,4.1-2.2s1.4-3.7,1.4-6.8V634.1z"></path>	<path class="st3" d="M522.1,651.9h-19.4v-2.7l10.3-11.4c1.5-1.7,2.6-3.1,3.1-4.2s0.9-2.2,0.9-3.3c0-1.5-0.5-2.8-1.4-3.8  c-0.9-1-2.2-1.5-3.7-1.5c-1.9,0-3.3,0.5-4.4,1.6s-1.6,2.5-1.6,4.4h-3.8c0-2.7,0.9-4.9,2.6-6.6c1.8-1.7,4.1-2.5,7.1-2.5  c2.8,0,4.9,0.7,6.5,2.2s2.4,3.4,2.4,5.8c0,2.9-1.9,6.4-5.6,10.4l-7.9,8.6h14.9V651.9z"></path>	<path class="st3" d="M542,642h4.1v3.1H542v6.9h-3.8v-6.9h-13.5v-2.2l13.3-20.5h4V642z M529,642h9.2v-14.5l-0.4,0.8L529,642z"></path>	<path class="st3" d="M568,640.9h-9.9v-3.1h9.9V640.9z"></path></g><polygon class="st3" points="498.2,415.4 465.5,382.7 481.7,366.5 498.2,383.1 533.4,347.9 549.6,364 "></polygon><g id="bsfz-logo_00000175320318265131089600000007514270317274672016_" transform="translate(0 -80)">	<path id="Pfad_1_00000155863605944043845680000018284187360033403036_" class="st4" d="M478.4,618.9c-3.7-0.1-7.4,0.6-10.8,2  c-2.9,1.1-5.5,3.1-7.4,5.6c-1.7,2.4-2.6,5.2-2.6,8.1c0,5.9,3.2,10.5,9.6,14c3.1,1.6,6.3,2.9,9.6,3.9c4,1.3,6.8,2.5,8.4,3.7  s2.4,3.1,2.3,5.1c0.1,1.9-0.8,3.6-2.3,4.7c-1.5,1.1-3.7,1.7-6.5,1.7c-7.4,0-11.1-3.1-11.1-9.3h-11.7c-0.1,3.4,0.9,6.8,2.8,9.6  c2,2.9,4.9,5.2,8.1,6.5c3.7,1.6,7.8,2.4,11.8,2.4c6.2,0,11.2-1.4,14.9-4.2c3.6-2.7,5.7-7,5.5-11.5c0.1-4.1-1.5-8.1-4.5-11  s-7.8-5.4-14.4-7.4c-2.9-0.8-5.6-1.9-8.1-3.5c-1.8-1.2-2.8-2.8-2.8-4.6c0-1.9,0.8-3.7,2.4-4.7c1.6-1.2,3.8-1.8,6.6-1.8  c2.9,0,5.2,0.7,6.9,2.1c1.7,1.5,2.6,3.7,2.4,6h11.6c0-3.2-0.9-6.4-2.6-9.1c-1.8-2.7-4.4-4.9-7.3-6.2  C485.8,619.6,482.1,618.8,478.4,618.9L478.4,618.9z M407.7,619.7V676h21.9c6.4,0,11.3-1.5,14.8-4.3s5.2-6.9,5.2-12.3  c0.1-2.9-0.8-5.7-2.5-8.1c-1.7-2.2-4.1-3.7-6.8-4.4c2.4-0.9,4.5-2.5,5.9-4.6c1.4-2.2,2.2-4.7,2.1-7.3c0-5.1-1.8-8.9-5.3-11.5  s-8.7-3.9-15.6-3.9L407.7,619.7L407.7,619.7z M419.3,629.1h8.1c3.2,0,5.5,0.6,7,1.7c1.5,1.1,2.2,3,2.2,5.5c0,4.6-2.9,6.9-8.8,7  h-8.6L419.3,629.1L419.3,629.1z M419.3,651.5h10.6c5.3,0.1,8,2.7,8,7.9c0.1,2.1-0.7,4.1-2.3,5.4c-1.5,1.3-3.7,2-6.4,2h-10  L419.3,651.5L419.3,651.5z"></path>	<path id="Pfad_2_00000085216937951597096810000011015847456171101324_" class="st5" d="M592,626.3v-6.7h-42.3v9.4h27.8l-27.9,40.1  v6.8h42.9v-9.3h-28.4L592,626.3z M541.5,643.6h-22.3V629h25.1v-9.4h-36.7V676h11.6v-23h22.3L541.5,643.6L541.5,643.6z"></path></g><g>	<path class="st6" d="M293,500C293,500,293,500.1,293,500L293,500c0,114.5,92.7,207.2,207.1,207.2c1.6,0,3.2,0,4.8-0.1  c0.3,0,0.6,0,0.9,0c111.7-3,201.4-94.6,201.4-207c0-114.4-92.7-207.1-207.1-207.1C385.8,293,293.1,385.6,293,500z"></path>	<g>		<path class="st6" d="M500.1,807.4c0,0-2.3-0.1-5.9-0.2C496.2,807.3,498.1,807.4,500.1,807.4z"></path>		<path class="st3" d="M500.1,193c77.5,0,77.5,99.8,0,99.8c114.4,0,207.1,92.9,207.1,207.3c0,111.6-88.2,202.5-198.6,206.9l0,0   c-0.9,0-1.8,0-2.7,0.1c-0.1,0-0.2,0-0.3,0c0,0-0.1,0-0.2,0c-0.2,0-0.3,0-0.5,0c0,0,0,0-0.1,0c-1.6,0-5.3,0.2-5.4,0.2   c-74.8,0.6-76.5,94.9-5.2,99.9c3.6,0.2,5.9,0.2,5.9,0.2v-0.1c169.7,0,307.2-137.5,307.2-307.2C807.3,330.5,669.8,193,500.1,193z"></path>		<path class="st5" d="M494.3,807.2c-71.3-4.9-69.6-99.3,5.2-99.9c0.2,0,0.4,0,0.6,0c-114.4,0-207-92.7-207-207.1l0,0l0,0v-0.1   C293,422.6,193,421.6,193,499.2v1l0,0c0,169.7,137.5,307.2,307.2,307.2l0,0C498.1,807.4,496.2,807.3,494.3,807.2z"></path>	</g>	<path class="st4" d="M500.1,192.9c-169.7,0-307.2,137.5-307.2,307.2l0,0c0-76.4,100-75.6,100.1,0.8C293,386.5,385.8,293,500.1,293  C577.6,293,577.6,192.9,500.1,192.9z"></path></g></svg>